<svg xmlns="http://www.w3.org/2000/svg" viewBox="0 0 434.95782 383.07122"><defs><style>.e7955fd7-2927-4f2c-a06c-e68caf029dfc{fill:#ffd555;}.a0dac4f8-1809-4164-8ae4-5fce9c176274{fill:none;stroke:#4d65af;stroke-miterlimit:10;stroke-width:7px;}</style></defs><title>404</title><g id="b4a31699-04c2-4c7d-90dc-bfbbcaa6d606" data-name="pick-cropped"><path class="e7955fd7-2927-4f2c-a06c-e68caf029dfc" d="M116.92468,326.10175l29.716-109.35614,3.76873.88262L128.53992,325.1568c1.41784-.0625,2.84839-.10144,4.28674-.12573l26.8042-106.03833,5.45276.48193L141.63208,325.12939q2.03952.08067,4.0379.21058l27.12757-104.85382,5.45276.48193-23.38263,105.278q2.10259.2742,4.16015.60126l27.51361-103.9375,4.699.30542L167.237,328.412q2.066.45648,4.087.965l28.20765-104.22,3.76873.88257L179.215,331.59576q2.08548.64866,4.12713,1.34662L212.34528,228.1579l4.34588,1.81293L192.42346,336.342q1.9337.78753,3.83,1.615l28.90545-106.79822,4.52247,1.05915L204.07843,341.54071q1.79408.86435,3.56445,1.75171l29.22284-107.80176,5.27625,1.23566-26.59473,110.6723q1.71735.921,3.41974,1.85364l30.7124-110.76068,5.27619,1.23565-28.0752,113.93042q1.68868.95133,3.37134,1.90284l32.81854-113.13776,4.34589,1.81293-28.63233,116.1239q1.62195.90308,3.24695,1.79419l33.50006-115.2226,4.346,1.81287L250.75153,366.79675q1.603.8228,3.21783,1.622l48.3822-161.32117s2.60016-14.49762-9.7315-22.95129-35.583-31.39081-27.10987-67.5705,32.17816-45.73468,32.17816-45.73468,6.27363-19.998,1.46528-40.20611S269.11871,6.109,269.11871,6.109s-24.5205-7.33276-37.802,8.63879-16.5401,36.67566-16.5401,36.67566,16.99707,19.08728,8.524,55.267-39.49146,46.40717-54.2945,48.506-18.9107,16.24335-18.9107,16.24335l-37.05994,155.1745Q114.966,326.33658,116.92468,326.10175Zm134.33-277.664c1.12115-4.78723,5.57336-7.83819,9.94433-6.81451s7.00544,5.73425,5.88428,10.52155-5.57336,7.83819-9.94433,6.81451S250.13348,53.225,251.25464,48.43774Z" transform="translate(-4.30749 -4.42878)"/></g><g id="b793200e-8100-4986-b654-fc7fa01b4253" data-name="desert"><path class="a0dac4f8-1809-4164-8ae4-5fce9c176274" d="M7,384s49-59,128-59,109,59,179,59,123-45,123-45" transform="translate(-4.30749 -4.42878)"/></g></svg>