<?xml version="1.0" standalone="no"?>
<!DOCTYPE svg PUBLIC "-//W3C//DTD SVG 20010904//EN"
 "http://www.w3.org/TR/2001/REC-SVG-20010904/DTD/svg10.dtd">
<svg version="1.0" xmlns="http://www.w3.org/2000/svg"
 width="343.000000pt" height="343.000000pt" viewBox="0 0 343.000000 343.000000"
 preserveAspectRatio="xMidYMid meet">
<metadata>
Created by potrace 1.11, written by Peter Selinger 2001-2013
</metadata>
<g transform="translate(0.000000,343.000000) scale(0.100000,-0.100000)"
fill="#000000" stroke="none">
<path d="M81 3206 c-46 -16 -71 -50 -71 -96 0 -42 24 -91 155 -315 48 -82 97
-166 107 -185 11 -19 35 -60 53 -90 18 -30 44 -75 57 -100 14 -25 64 -112 113
-195 85 -147 113 -195 152 -265 11 -19 76 -132 145 -250 143 -248 386 -669
416 -720 49 -86 251 -436 315 -545 38 -66 76 -130 83 -143 25 -48 81 -82 122
-75 29 4 55 22 80 54 17 22 253 425 307 524 12 22 31 54 41 72 10 17 66 113
124 212 121 208 114 197 159 276 19 33 90 156 158 273 67 117 134 232 147 255
35 64 131 229 206 357 37 63 77 133 89 155 12 22 31 56 42 75 28 45 195 333
224 385 13 22 44 76 69 120 34 60 46 91 46 122 0 49 -27 85 -76 101 -48 15
-3218 13 -3263 -2z"/>
</g>
</svg>
