<?xml version="1.0" encoding="utf-8"?>
<!-- Generator: Adobe Illustrator 19.1.1, SVG Export Plug-In . SVG Version: 6.00 Build 0)  -->
<svg version="1.1" xmlns="http://www.w3.org/2000/svg" xmlns:xlink="http://www.w3.org/1999/xlink" x="0px" y="0px"
	 viewBox="0 0 357.9572449 310.0000916" style="enable-background:new 0 0 357.9572449 310.0000916;" xml:space="preserve">
<style type="text/css">
	.st0{display:none;}
	.st1{display:inline;fill:#19191A;}
	.st2{display:inline;}
	.st3{fill:#FFFFFF;}
	.st4{fill:#FFCF3D;}
	.st5{fill:#FFD555;}
	.st6{fill:#2C409A;}
	.st7{display:inline;fill:#2C409A;}
	.st8{fill:#4D65AF;}
	.st9{display:inline;fill:#4D65AF;}
	.st10{display:inline;fill:#FFCF3D;}
	.st11{display:inline;fill:#FFD555;}
</style>
<g id="guides" class="st0">
</g>
<g id="background" class="st0">
	<rect class="st1" width="357.9572449" height="310.0000916"/>
</g>
<g id="logo-triangle">
	<g id="bi-color">
		<g id="sharp" class="st0">
			<g id="yellow-white_1_" class="st2">
				<polygon class="st3" points="357.9572449,0.0000324 178.9786224,310.0000916 0,0.0000324 				"/>
				<polygon class="st4" points="334.8327637,0.0000254 178.9786224,269.9473267 23.1244621,0.0000254 				"/>
			</g>
			<g id="blue-yellow_1_" class="st2">
				<polygon class="st5" points="357.9572449,0.0000324 178.9786224,310.0000916 0,0.0000324 				"/>
				<polygon class="st6" points="334.8327637,0.0000254 178.9786224,269.9473267 23.1244621,0.0000254 				"/>
			</g>
		</g>
		<g id="round">
			<g id="yellow-white">
				<g id="triangle-outer">
					<path class="st3" d="M335.9572449,0.0000324c12.0999756,0,17.0499878,8.5736513,11,19.0525589L189.9786224,290.9475403
						c-6.0500031,10.4789124-15.9500122,10.4789124-22,0L11,19.0525913C4.9499998,8.5736837,9.8999996,0.0000324,22,0.0000324
						L335.9572449,0.0000324z"/>
				</g>
				<polygon id="triangle-inner" class="st4" points="334.8327332,0 23.1244907,0 122.5249405,172.166687 122.5249405,172.166687 
					178.9786224,269.9473267 235.4322968,172.166687 235.4322968,172.166687 				"/>
			</g>
			<g id="blue-yellow" class="st0">
				<g id="tiangle-outer" class="st2">
					<path class="st5" d="M335.9572449,0.0000324c12.0999756,0,17.0499878,8.5736513,11,19.0525589L189.9786224,290.9475403
						c-6.0500031,10.4789124-15.9500122,10.4789124-22,0L11,19.0525913C4.9499998,8.5736837,9.8999996,0.0000324,22,0.0000324
						L335.9572449,0.0000324z"/>
				</g>
				<polygon id="triangle-inner_1_" class="st7" points="334.8327332,0 23.1244907,0 122.5249405,172.166687 
					122.5249405,172.166687 178.9786224,269.9473267 235.4322968,172.166687 235.4322968,172.166687 				"/>
			</g>
		</g>
	</g>
	<g id="mono-color" class="st0">
		<g id="round_1_" class="st2">
			<g id="blue-dark" class="st0">
				<g class="st2">
					<path class="st6" d="M335.9572449,0.0000324c12.0999756,0,17.0499878,8.5736513,11,19.0525589L189.9786224,290.9475403
						c-6.0500031,10.4789124-15.9500122,10.4789124-22,0L11,19.0525913C4.9499998,8.5736837,9.8999996,0.0000324,22,0.0000324
						L335.9572449,0.0000324z"/>
				</g>
			</g>
			<g id="blue-light" class="st0">
				<g class="st2">
					<path class="st8" d="M335.9572449,0.0000324c12.0999756,0,17.0499878,8.5736513,11,19.0525589L189.9786224,290.9475403
						c-6.0500031,10.4789124-15.9500122,10.4789124-22,0L11,19.0525913C4.9499998,8.5736837,9.8999996,0.0000324,22,0.0000324
						L335.9572449,0.0000324z"/>
				</g>
			</g>
			<g id="yellow-bright" class="st0">
				<g class="st2">
					<path class="st4" d="M335.9572449,0.0000324c12.0999756,0,17.0499878,8.5736513,11,19.0525589L189.9786224,290.9475403
						c-6.0500031,10.4789124-15.9500122,10.4789124-22,0L11,19.0525913C4.9499998,8.5736837,9.8999996,0.0000324,22,0.0000324
						L335.9572449,0.0000324z"/>
				</g>
			</g>
			<g id="yellow" class="st0">
				<g class="st2">
					<path class="st5" d="M335.9572449,0.0000324c12.0999756,0,17.0499878,8.5736513,11,19.0525589L189.9786224,290.9475403
						c-6.0500031,10.4789124-15.9500122,10.4789124-22,0L11,19.0525913C4.9499998,8.5736837,9.8999996,0.0000324,22,0.0000324
						L335.9572449,0.0000324z"/>
				</g>
			</g>
		</g>
		<g id="sharp_1_" class="st2">
			<g id="blue-dark_copy" class="st0">
				<polygon class="st7" points="357.9572449,0.0000324 178.9786224,310.0000916 0,0.0000324 				"/>
			</g>
			<g id="blue-light_copy" class="st0">
				<polygon class="st9" points="357.9572449,0.0000324 178.9786224,310.0000916 0,0.0000324 				"/>
			</g>
			<g id="yellow-bright_copy" class="st0">
				<polygon class="st10" points="357.9572449,0.0000324 178.9786224,310.0000916 0,0.0000324 				"/>
			</g>
			<g id="yellow_copy" class="st0">
				<polygon class="st11" points="357.9572449,0.0000324 178.9786224,310.0000916 0,0.0000324 				"/>
			</g>
		</g>
	</g>
</g>
</svg>
